<?xml version="1.0" encoding="UTF-8"?>
<svg id="Layer_1" xmlns="http://www.w3.org/2000/svg" version="1.1" xmlns:xlink="http://www.w3.org/1999/xlink" viewBox="0 0 538 255">
  <!-- Generator: Adobe Illustrator 29.0.0, SVG Export Plug-In . SVG Version: 2.1.0 Build 186)  -->
  <defs>
    <style>
      .st0 {
        fill: none;
      }

      .st1 {
        fill: #ca373c;
      }

      .st2 {
        fill: #008854;
      }

      .st3 {
        fill: #0a0909;
      }

      .st4 {
        clip-path: url(#clippath);
      }
    </style>
    <clipPath id="clippath">
      <rect class="st0" x="64.7" y="48.4" width="254.2" height="84.2"/>
    </clipPath>
  </defs>
  <g class="st4">
    <g>
      <path class="st3" d="M98,104.2c7.9-.4,20.5-10.2,17.8-19-1.1-3.7-7.2-3.8-10.2-3.1-6.9,1.7-10.4,8.3-11.3,14.9-.4.4-8-2.8-8.4-4.1-.9-2.8,3.6-9.6,3.2-10.1-13-3.5-20.7,11.2-12.2,21l7.7,8.8c-11.7-4.3-26.3-17.8-16.5-30.7,6.4-8.5,16.6-7.5,24.6-1.9,7.5-3.4,13.4-7,21-1.1,11.6,9,4.5,28.5-7.8,33.3l-7.8-8Z"/>
      <path class="st3" d="M231.9,83.9c2.2.2,4.3-.8,5.7,1.3.7,4.1-1.2,19,.9,21.7,1.9,2.4,7.1,1,9-1.1,4.6-4.8,3.2-11.6,2.8-17.6l5.9,2.4.2,30.1c-1.8,11.7-18.6,13.5-25.8,5.9-6.3-6.6-.6-13.1,6.9-13.5l3.8,5.5c-4.2,0-14,3.4-7.5,8.3,6.1,4.6,17.5-.8,17.5-8.5v-9.7c-4.9,1.8-10,2.9-14.6-.3-1.7-1.2-4.8-4.9-4.8-7.1v-17.3h0Z"/>
      <path class="st3" d="M193.1,95.2c-1.6-.4-1.3-4-3.1-3.3-1.2.5.4,3.7.2,5.4-.9,8.8-14.4,1.4-16,9.5.2.6.6.7,1.2.8,3.8.7,8.8-5.2,14.2-4.8,6.1.5,10.2,17.1,4.6,18.4-5.5,1.3-7.8-3.1-12.4-3.9-7.6-1.4-14.4,4.4-17.8,10.7-1.8-2.5,0-6.6,1.4-9,2.8-5.1,7.6-7.8,13.5-6.4,3.2.7,5.9,4.9,9.2,5,4.1.1,7.2-4,5.6-8-2.2-5.3-11,2.1-14.6,2.2-4.6.1-12.9-10.8-4-11.8-2.9-5.3-3.2-11.2,4.1-12.3,3.6-.5,5.8,0,8.4,2.3,2-3.1,4.3-3.3,6.4-.2,2,2.8,0,2.9-1,5.4h0ZM182.1,90.6c-7.1,1.5-7.6,13.9.8,8.3,4-2.6,6-9.7-.8-8.3Z"/>
      <path class="st3" d="M280.6,112.3l-4.6-2.3c-5.1,2.9-12,3.6-16-1.6-6.5-8.5,8.7-17,15.8-11.8,1.2-4.8-5-4.2-8.1-3.6-2.5.5-4.6,2.6-7,1.6-1.2-1.9,2.8-4.7,4.2-5.4,4.2-2.1,11-2.6,13.9,1.7.5.7,1.7,3.4,1.7,4v17.3h0ZM268.2,100.1c-3,.5-7.1,3.8-7.2,7,3.4,2.9,13.1-.8,14.7-4.3,1.3-2.7-5.6-3-7.5-2.7h0Z"/>
      <path class="st3" d="M219.1,112.3l-5-2.7c-4.2,3.1-11.4,3.3-15.2-.6-8.1-8.3,8.2-18.5,15.4-12.3.6-7.9-10.6-3.2-14.7-1.4-1.8-3.1,1.7-5.3,4.3-6.4,3.4-1.5,9.4-2.1,12.3.6,1.1,1,2.8,4.7,2.8,6v16.8ZM207.2,99.6c-3.1.5-8.2,3.9-7.7,7.5,3.8,2.5,12.9-1.1,14.7-4.8,1.1-2.2-5.5-3-7-2.7h0Z"/>
      <path class="st3" d="M142,112.3c-.3.3-3.9-1.4-4.1-2.4-2.2.6-3.8,1.9-6.2,2.3-7.7,1-15.7-6-9.6-12.9,3.9-4.3,10.5-5.2,15.6-2.6.9-8.5-13.5-1.1-14.7-1.6l-.9-1.1c1.7-5.2,10.7-7.5,15.4-5.4,1.8.8,4.5,4,4.5,5.9v17.7ZM129.6,100.1c-3.1.5-6.9,3.8-7.2,7,2.9,3.2,15-1.5,14.9-5,0-2-6.1-2.3-7.7-2h0Z"/>
      <path class="st3" d="M145.8,88.6h4.2c.5.4,0,2.8,1.2,2.4,5.6-5.3,12.2-4,16,2.5,3.8,6.5,1.9,14.4-2.7,19.7l-5.4-4.1c4.2-4.7,6.5-8.5,5.6-15.1-.7-4.8-6.1-4.2-9.2-1.7-2,1.6-5,7.3-5,9.7v10.6l-4.7-3.1v-21.1h0Z"/>
      <path class="st3" d="M228.6,112.3c-2.1,0-3.7-1.6-5.2-2.7-.7-11,1-23.1,0-33.9-.5-5.7-3.3-10.2-6.6-14.7l4.9-.3c2.1,2.5,4,5.2,5.1,8.3.7,2,1.9,7,1.9,9v34.3Z"/>
      <path class="st2" d="M301.2,80.5c-2.7.3-8.3,2.6-10.8,3.8-2.3,1.2-6.7,4.8-8.4,5.4-.8.3-1.2-.2-1.9-.3,4.7-7.4,9.9-15,11.3-23.9.1-.8.8-5.9-.2-5.8-5.3,4.9-10,10.3-14,16.3-.5.7-.8-.9-.8-1.1-.1-3.6,6.7-13.6,9.2-16.6,3-3.8,6.7-7.5,10.8-10l1.1.8c1.7,9.8-1,19.7-5.1,28.5,7.6-2.9,16.2-5.8,24.3-3.3.7.2,2.2.5,2.1,1.5,0,.8-4.5,6.4-5.4,7.4-5.2,5.9-12.1,10.9-19.9,12.8l.7-.7-1.4-.2,6.2-4.5c2.5-3,6.4-5.8,8.7-8.8.4-.5.9-.6.7-1.4-2.3.2-5-.3-7.3,0h0Z"/>
      <path class="st2" d="M266.9,70.4c.4,3.3,2.8,7,3.8,10.2-.3.4-4.8-3.3-5.5-3.7-2.3-1.3-6.8-3.4-9.1-1.8l8.7,9.2c-4-.8-13.9-9.8-14.4-13.5-.1-1,0-.6.7-.7,4.9-.7,10.5,1.6,14.4,4.3-1.8-5.7-3.5-12.1-1.7-18,4.9,4.5,9,10,10.6,16.6l-7.6-9.5c.2,2.2-.3,4.7,0,6.9h0Z"/>
      <path class="st2" d="M295.3,108c2.6,5.5,2.9,11.5,2.4,17.5-.8.2-.9-.3-1.4-.7-3.7-2.8-8.3-9.8-9.4-14.3,0-.4-.4-1.5.4-.8,1.5,2.3,2.9,5,4.7,7.1.3.4,1.9,2.2,2.3,1.7.5-6.2-1.7-11.6-4.2-17,4.4,3.1,8.9,7,14.7,6.1.4-.3-2.2-3.4-2.6-3.8-1.8-2-4-3.6-5.9-5.4,0-.4.5-.3.7-.2,5.5,1.7,11.1,8.7,14,13.5-2.8,1.7-7.5.2-10.4-1-.8-.3-5-2.8-5.2-2.6h0Z"/>
    </g>
  </g>
  <g>
    <path class="st1" d="M420.1,144.7h-161.3v13.9c3.9-.7,7.4-1.6,11-1.8,6.9-.5,14-1.3,20.8-.6,10.8,1.1,17.9,7.6,18.4,18.3.9,17.8.2,35.6.2,54.8-5.1-2.7-9.9-5.3-15.9-8.4-9.8,5.7-21.9,8.8-35,6.3-3.2-.6-6.4-1.5-9.3-2.8-16.1-7.2-19-21.9-6-33.7,15.3-13.8,33-16.3,52.1-8.5,2.4-7.6-2-14.5-11.1-14.3-9.8.1-19.6,2.4-29.4,4.1-3.6.6-6.9,2.4-10.2,3.6,1.1-10.4,2.1-20.3,3.2-30.9H87.9v13.2c9.5-.7,18.8-2.2,28.1-1.9,15,.5,21.3,7.2,22.8,22.2.1,1.2.4,2.5.4,3.7,0,15.3,0,30.7,0,47.7-5.7-2.9-10.5-5.4-16.6-8.5-9.8,5.6-21.9,8.7-34.9,6.2-2.4-.5-4.9-1-7.2-2-19.4-7.6-22-24.4-5.4-37.1,15.1-11.5,31.8-13.4,49.3-5.9,2.7-7.7-2.1-14.6-11.8-14.4-9.6.2-19.1,2.4-28.6,4.2-3.6.6-6.9,2.4-10.3,3.6,1.1-10.4,2.1-20.3,3.2-31.3-4.9,0-8.1,0-11.3,0-3.9,0-7.5.4-7.4-5.4,0-5.6,3.5-4.9,7.1-4.9,4.7,0,9.5,0,14.2,0,110.1,0,220.2,0,330.3,0q10.3,0,10.3-10.6c0-5.4,0-10.9,0-16.5,14.6,3.5,17.5,13.7,14.7,27.1,13.3,0,25,.4,36.7-.1,7.2-.3,9.8,2,7.6,10.1h-43c-.3,3.2-.7,5.3-.7,7.4,0,19.6,0,39.2,0,58.9,0,5.4,0,11.4,6.6,12.5,7.1,1.2,10.1-4.4,11.6-10.2,1.2-4.7,1.8-9.6,2.8-15.3,5.6,3.2,10.7,6,15.7,8.8-5.4,15.8-19.8,24.6-34.4,21.5-10.5-2.2-17.4-10.4-17.5-21.1-.1-17.6,0-35.3,0-52.9,0-2.7,0-5.4,0-8.6ZM84.2,219.9c14.9-2.1,27.4-6.5,37.8-15.9,5.2-4.7,4.7-7.6-1.7-10.4-15-6.6-29.4-5.4-41.9,5.4-3.8,3.3-5.6,8.7-8.4,13.2,4.7,2.6,9.4,5.1,14.1,7.7ZM255.1,219.9c14.9-2.2,27.4-6.4,37.8-15.9,5.2-4.7,4.7-7.5-1.8-10.3-15-6.7-29.4-5.3-41.9,5.5-3.8,3.3-5.6,8.7-8.3,13.2,4.8,2.5,9.5,5,14.3,7.6Z"/>
    <path class="st1" d="M382.6,231.4c-5.4-3.4-10.4-6.5-16.2-10.2,3.5-3.6,6.5-6.8,9.5-9.9,7.8-8.1,11.6-17.7,11.5-29-.2-17.4-14-26.1-29.7-18.2-14.5,7.2-21.2,20-22.9,35.3-1,9.8-.2,19.7-.2,29.8-12.5-2.3-14.7-4.8-14.7-15.5,0-18.1,0-36.1,0-54.8h14.5c.3,2.6.6,5,1,8.9,12.4-9.7,25.3-17,40.2-10.4,7.1,3.1,14,9.1,18.3,15.5,11.5,17.1,6.1,42.6-11.2,58.5Z"/>
    <path class="st1" d="M163.7,230.2q-14.4-5.8-14.4-18.7c0-17.3,0-34.7,0-52.6h14.1c.3,2.6.5,5,.9,8.8,21.7-16.3,42.6-19.7,58.9,5.4,11.3,17.3,5.9,41.6-11.3,58.2-5-3.1-10.2-6.4-16.2-10.1,3.3-3.4,5.9-6.3,8.6-9,8.8-8.7,13-19.3,12.3-31.6-.8-15-12-22.5-26.6-18-13.5,4.2-25.4,20.8-26.3,37.7-.5,9.6,0,19.2,0,30Z"/>
  </g>
</svg>